<svg xmlns="http://www.w3.org/2000/svg" viewBox="0 0 1199.98 1051.87"><defs><style>.cls-1{fill:#fcfcfc;}</style></defs><g id="Capa_2" data-name="Capa 2"><g id="Capa_2-2" data-name="Capa 2"><path class="cls-1" d="M1198.31,381.75a33.62,33.62,0,0,0-3.75-8.81L989.81,18.75A37.61,37.61,0,0,0,957.19,0H242.81a37.61,37.61,0,0,0-32.62,18.75L5.06,374.06A37.3,37.3,0,0,0,0,393v2.25c5.25,80.44,64.12,145.69,140.25,162.19v456.93a37.37,37.37,0,0,0,37.5,37.5h844.13a37.49,37.49,0,0,0,37.5-37.5V557.44c73.68-15.94,131.24-77.82,139.31-154.88A37.39,37.39,0,0,0,1198.31,381.75ZM823.13,976.87H686.06V741.19H823.13Zm161.25,0H898.13V703.69a37.37,37.37,0,0,0-37.5-37.5H648.56a37.37,37.37,0,0,0-37.5,37.5V976.87H215.25V557.44a178.69,178.69,0,0,0,103.12-65.07c32.82,42.19,83.82,69.19,140.63,69.19a178.4,178.4,0,0,0,140.81-69.19,177.65,177.65,0,0,0,281.25.19,179.28,179.28,0,0,0,103.32,64.88Zm37.5-490.31c-54.19,0-99.38-42.19-102.75-96-1.32-19.69-18.75-35.06-38.44-35.06a37.51,37.51,0,0,0-37.5,34.87,103,103,0,0,1-205.5,0c-1.31-19.68-18.75-34.87-38.44-34.87a37.33,37.33,0,0,0-37.31,34.87c-3.75,54-48.94,96.19-102.94,96.19a103.22,103.22,0,0,1-102.75-96.19c-1.31-19.68-18.75-34.87-38.44-34.87a37.55,37.55,0,0,0-37.5,35.06c-3.37,53.81-48.56,96-102.75,96-50.62,0-93.37-36.94-101.44-85.69L264.37,75H935.63L1123.5,399.75A103,103,0,0,1,1021.88,486.56Z"/><path class="cls-1" d="M492.56,666.19h-159a37.49,37.49,0,0,0-37.5,37.5V856.12a37.49,37.49,0,0,0,37.5,37.5h159a37.36,37.36,0,0,0,37.5-37.5V703.69A37.36,37.36,0,0,0,492.56,666.19Zm-37.5,152.43h-84V741.19h84Z"/><path class="cls-1" d="M348.49,312.53a37.51,37.51,0,0,1-35.34-50L355.3,143.55a37.49,37.49,0,1,1,70.68,25L383.83,287.54A37.51,37.51,0,0,1,348.49,312.53Z"/><path class="cls-1" d="M851.51,312.53a37.51,37.51,0,0,1-35.34-25L774,168.6a37.49,37.49,0,1,1,70.68-25l42.15,118.94a37.51,37.51,0,0,1-35.34,50Z"/><path class="cls-1" d="M600,318.28a37.5,37.5,0,0,1-37.5-37.5V156.07a37.5,37.5,0,1,1,75,0V280.78A37.5,37.5,0,0,1,600,318.28Z"/></g></g></svg>